<svg xmlns="http://www.w3.org/2000/svg" viewBox="0 0 227.77 227.77"><defs><style>.cls-1{fill:#f1f3f7;}.cls-1,.cls-8{stroke:#c6c6c6;stroke-miterlimit:10;}.cls-2{fill:#b2b2b2;}.cls-3{fill:#ededed;}.cls-4{fill:#878787;}.cls-5{fill:#9d9d9c;}.cls-6{fill:#c6c6c6;}.cls-7{fill:#dadada;}.cls-8{fill:none;stroke-width:4.5px;}</style></defs><g id="Layer_2" data-name="Layer 2"><g id="Layer_1-2" data-name="Layer 1"><circle class="cls-1" cx="113.89" cy="113.89" r="113.39"/><rect class="cls-2" x="66.85" y="48.85" width="93.54" height="136.25" rx="11.34"/><rect class="cls-3" x="74.06" y="64.47" width="79.11" height="110.55"/><circle class="cls-4" cx="79.58" cy="57.58" r="5.81"/><path class="cls-5" d="M85.39,57.58a6,6,0,0,1-1.66,4.15,6,6,0,0,1-4.15,1.9,6.06,6.06,0,1,1,0-12.11,6,6,0,0,1,4.15,1.9A6.05,6.05,0,0,1,85.39,57.58Zm0,0A5.55,5.55,0,0,0,79.58,52a5.57,5.57,0,0,0,0,11.12,5.55,5.55,0,0,0,5.81-5.56Z"/><rect class="cls-6" x="74.58" y="39.39" width="10" height="23" rx="5"/><circle class="cls-4" cx="102.48" cy="57.93" r="5.81"/><path class="cls-5" d="M108.29,57.93a6.06,6.06,0,0,1-10.22,4.41,6.06,6.06,0,1,1,8.57-8.56A6,6,0,0,1,108.29,57.93Zm0,0a5.55,5.55,0,0,0-5.81-5.55,5.56,5.56,0,0,0,0,11.11,5.55,5.55,0,0,0,5.81-5.56Z"/><rect class="cls-6" x="97.48" y="39.74" width="10" height="23" rx="5"/><circle class="cls-4" cx="125.1" cy="57.43" r="5.81"/><path class="cls-5" d="M130.91,57.43a6.06,6.06,0,1,1-12.12,0,6.05,6.05,0,0,1,10.47-4.15A6,6,0,0,1,130.91,57.43Zm0,0a5.55,5.55,0,0,0-5.81-5.55,5.56,5.56,0,0,0,0,11.11,5.55,5.55,0,0,0,5.81-5.56Z"/><rect class="cls-6" x="120.1" y="39.24" width="10" height="23" rx="5"/><circle class="cls-4" cx="147.36" cy="57.08" r="5.81"/><path class="cls-5" d="M153.17,57.08a6.06,6.06,0,0,1-5.81,6.05,6.06,6.06,0,1,1,0-12.11,6.06,6.06,0,0,1,5.81,6.06Zm0,0a5.55,5.55,0,0,0-5.81-5.56,5.57,5.57,0,0,0,0,11.12,5.55,5.55,0,0,0,5.81-5.56Z"/><rect class="cls-6" x="142.36" y="38.89" width="10" height="23" rx="5"/><rect class="cls-7" x="74.06" y="64.47" width="79.11" height="110.55"/><polygon class="cls-3" points="153.57 175.2 136.73 175.2 74.2 175.2 74.2 64.29 153.57 64.29 153.57 175.2"/><rect class="cls-6" x="133.75" y="155.38" width="19.83" height="19.83"/><polyline class="cls-7" points="133.75 175.02 133.75 155.19 153.57 155.19"/><path class="cls-6" d="M133.75,175c-.21-3.3-.31-6.61-.39-9.91s-.1-6.61-.11-9.92v-.5h.51c3.3,0,6.6,0,9.91.12l5,.14c1.66.08,3.31.13,5,.24-1.65.12-3.3.17-5,.25l-5,.14c-3.31.09-6.61.1-9.91.11l.5-.5c0,3.31,0,6.61-.12,9.92S134,171.72,133.75,175Z"/><rect class="cls-6" x="108.28" y="140.14" width="12.04" height="3.87" rx="1.94"/><rect class="cls-6" x="109.34" y="145.73" width="9.91" height="3.87" rx="1.94"/><rect class="cls-6" x="111.29" y="151.32" width="6.02" height="3.87" rx="1.94"/><path class="cls-8" d="M135.54,106.05a21.19,21.19,0,0,1-10.84,18.51v1a10.28,10.28,0,0,1-10.25,10.25h0a10.24,10.24,0,0,1-10.23-10.24v-.85a21.24,21.24,0,1,1,31.32-18.7Z"/></g></g></svg>